<svg width="315" height="51" viewBox="0 0 315 51" fill="none" xmlns="http://www.w3.org/2000/svg">
<path d="M294.64 0C300.948 0 305.823 1.50543 309.264 4.51629C312.753 7.47937 314.497 11.6611 314.497 17.0616C314.497 22.701 312.753 27.0978 309.264 30.252C305.823 33.3585 300.948 34.9117 294.64 34.9117H279.37L283.098 31.1839V48.1811C283.098 49.2856 282.203 50.1811 281.098 50.1811H276.639C275.534 50.1811 274.639 49.2856 274.639 48.1811V2C274.639 0.895433 275.534 0 276.639 0H294.64ZM294.281 27.6713C298.152 27.6713 301.139 26.8349 303.242 25.1622C305.345 23.4417 306.396 20.8132 306.396 17.2766C306.396 13.8834 305.345 11.3744 303.242 9.74946C301.139 8.07676 298.152 7.24041 294.281 7.24041H279.37L283.098 3.51268V31.399L279.37 27.6713H294.281Z" fill="#60594E"/>
<path d="M178.983 0.000436875C182.472 0.000436875 185.459 0.502249 187.944 1.50587C190.477 2.50949 192.412 3.94323 193.751 5.8071C195.136 7.67097 195.829 9.91717 195.829 12.5457C195.829 15.3654 195.041 17.7789 193.464 19.7861C191.887 21.7934 189.736 23.1076 187.012 23.7289C190.357 24.3024 192.986 25.7123 194.898 27.9585C196.809 30.2047 197.765 33.0244 197.765 36.4176C197.765 39.285 197.024 41.7463 195.543 43.8013C194.061 45.8564 191.958 47.4335 189.234 48.5327C186.51 49.6319 183.26 50.1815 179.485 50.1815H159.19C158.085 50.1815 157.19 49.2861 157.19 48.1815V2.00044C157.19 0.89587 158.085 0.000436875 159.19 0.000436875H178.983ZM178.553 20.8614C181.229 20.8614 183.332 20.264 184.861 19.0692C186.391 17.8267 187.155 16.1062 187.155 13.9078C187.155 11.7571 186.391 10.1083 184.861 8.96134C183.332 7.76656 181.229 7.19305 178.553 7.24084H167.649C166.545 7.24084 165.649 8.13628 165.649 9.24084V18.8614C165.649 19.966 166.545 20.8614 167.649 20.8614H178.553ZM178.553 42.9411C181.85 42.9889 184.431 42.3676 186.295 41.0772C188.159 39.7391 189.091 37.8513 189.091 35.4139C189.091 33.1199 188.159 31.3278 186.295 30.0374C184.431 28.6992 181.85 28.054 178.553 28.1018H167.649C166.545 28.1018 165.649 28.9973 165.649 30.1018V40.9411C165.649 42.0457 166.545 42.9411 167.649 42.9411H178.553Z" fill="#60594E"/>
<path d="M118.834 0C125.142 0 130.017 1.50543 133.458 4.5163C136.947 7.47937 138.691 11.6611 138.691 17.0616C138.691 22.701 136.947 27.0978 133.458 30.252C130.017 33.3585 125.142 34.9117 118.834 34.9117H103.564L107.292 31.184V48.1811C107.292 49.2856 106.397 50.1811 105.292 50.1811H100.833C99.7283 50.1811 98.8328 49.2856 98.8328 48.1811V2C98.8328 0.895433 99.7283 0 100.833 0H118.834ZM118.475 27.6713C122.346 27.6713 125.333 26.8349 127.436 25.1622C129.539 23.4417 130.59 20.8132 130.59 17.2766C130.59 13.8834 129.539 11.3744 127.436 9.74947C125.333 8.07677 122.346 7.24041 118.475 7.24041H103.564L107.292 3.51268V31.399L103.564 27.6713H118.475Z" fill="#60594E"/>
<path d="M64.2957 2.00013C64.2957 0.895557 65.1911 0.000123501 66.2957 0.000123501H70.7548C71.8593 0.000123501 72.7548 0.895554 72.7548 2.00012V48.1812C72.7548 49.2858 71.8593 50.1812 70.7548 50.1812H66.2957C65.1911 50.1812 64.2957 49.2858 64.2957 48.1812V2.00013Z" fill="#60594E"/>
<path d="M211.112 23.8501C211.112 22.839 211.932 22.0194 212.943 22.0194H257.872C258.883 22.0194 259.703 22.839 259.703 23.8501V25.4901C259.703 38.9081 248.826 49.7855 235.408 49.7855C221.99 49.7855 211.112 38.9081 211.112 25.4901V23.8501Z" fill="#DC6E3F"/>
<path d="M249.291 22.0193C249.291 14.3519 243.075 8.13627 235.408 8.13627C227.74 8.13627 221.525 14.3519 221.525 22.0193C221.525 29.6867 227.74 35.9024 235.408 35.9024V41.687C224.546 41.687 215.74 32.8815 215.74 22.0193C215.74 11.1572 224.546 2.35167 235.408 2.35167C246.27 2.35167 255.076 11.1572 255.076 22.0193C255.076 32.8815 246.27 41.687 235.408 41.687V35.9024C243.075 35.9024 249.291 29.6867 249.291 22.0193Z" fill="#DC6E3F"/>
<path d="M0.934921 2.00009C0.934921 0.895522 1.83035 9.29834e-05 2.93492 9.29834e-05H40.1434C41.2479 9.29834e-05 42.1434 0.895524 42.1434 2.00009V5.03776C42.1434 5.50052 41.9829 5.94897 41.6893 6.30666L14.1899 39.8095C13.1185 41.1148 14.0471 43.0784 15.7358 43.0784H40.503C41.6075 43.0784 42.503 43.9738 42.503 45.0784V48.342C42.503 49.4466 41.6075 50.342 40.503 50.342H2C0.895432 50.342 0 49.4466 0 48.342V45.3056C0 44.8421 0.161023 44.3929 0.455538 44.035L28.0177 10.5344C29.0913 9.22948 28.163 7.26371 26.4732 7.26371H2.93492C1.83035 7.26371 0.934921 6.36828 0.934921 5.26371V2.00009Z" fill="#60594E"/>
</svg>
