<svg width="1422" height="228" viewBox="0 0 1422 228" fill="none" xmlns="http://www.w3.org/2000/svg">
<path d="M1332.47 0C1360.91 0 1382.89 6.79894 1398.4 20.3969C1414.14 33.7789 1422 52.6649 1422 77.0548C1422 102.524 1414.14 122.381 1398.4 136.627C1382.89 150.656 1360.91 157.671 1332.47 157.671H1263.62L1280.43 140.835V217.599C1280.43 222.588 1276.39 226.632 1271.41 226.632H1251.31C1246.33 226.632 1242.29 222.588 1242.29 217.599V9.03257C1242.29 4.04403 1246.33 0 1251.31 0H1332.47ZM1330.85 124.971C1348.31 124.971 1361.77 121.194 1371.25 113.64C1380.74 105.869 1385.48 93.9982 1385.48 78.0261C1385.48 62.7015 1380.74 51.3699 1371.25 44.0313C1361.77 36.4769 1348.31 32.6997 1330.85 32.6997H1263.62L1280.43 15.8642V141.807L1263.62 124.971H1330.85Z" fill="#FEFDFA"/>
<path d="M812.996 0.00197305C828.726 0.00197305 842.194 2.2683 853.399 6.80094C864.82 11.3336 873.547 17.8088 879.58 26.2265C885.829 34.6443 888.954 44.7887 888.954 56.6599C888.954 69.3945 885.398 80.2944 878.287 89.3597C871.176 98.4249 861.48 104.361 849.197 107.166C864.281 109.757 876.132 116.124 884.752 126.268C893.371 136.413 897.681 149.147 897.681 164.472C897.681 177.422 894.341 188.538 887.661 197.819C880.981 207.1 871.5 214.223 859.217 219.187C846.935 224.152 832.282 226.634 815.259 226.634H723.754C718.774 226.634 714.737 222.59 714.737 217.601V9.03455C714.737 4.046 718.774 0.00197305 723.754 0.00197305H812.996ZM811.057 94.2161C823.124 94.2161 832.605 91.5181 839.5 86.1221C846.396 80.5102 849.844 72.74 849.844 62.8114C849.844 53.0986 846.396 45.6521 839.5 40.4719C832.605 35.076 823.124 32.4859 811.057 32.7017H761.894C756.914 32.7017 752.877 36.7457 752.877 41.7343V85.1835C752.877 90.172 756.914 94.2161 761.894 94.2161H811.057ZM811.057 193.934C825.925 194.15 837.561 191.344 845.965 185.516C854.369 179.473 858.571 170.947 858.571 159.939C858.571 149.579 854.369 141.485 845.965 135.657C837.561 129.614 825.925 126.7 811.057 126.916H761.894C756.914 126.916 752.877 130.96 752.877 135.948V184.902C752.877 189.89 756.914 193.934 761.894 193.934H811.057Z" fill="#FEFDFA"/>
<path d="M535.796 0C564.239 0 586.218 6.79896 601.733 20.3969C617.463 33.7789 625.328 52.6649 625.328 77.0548C625.328 102.524 617.463 122.381 601.733 136.627C586.218 150.656 564.239 157.671 535.796 157.671H466.949L483.757 140.836V217.599C483.757 222.588 479.719 226.632 474.739 226.632H454.634C449.654 226.632 445.616 222.588 445.616 217.599V9.03258C445.616 4.04403 449.654 0 454.634 0H535.796ZM534.179 124.971C551.633 124.971 565.101 121.194 574.582 113.64C584.063 105.869 588.804 93.9983 588.804 78.0261C588.804 62.7015 584.063 51.3699 574.582 44.0313C565.101 36.4769 551.633 32.6997 534.179 32.6997H466.949L483.757 15.8642V141.807L466.949 124.971H534.179Z" fill="#FEFDFA"/>
<path d="M289.896 9.03313C289.896 4.04459 293.933 0.000557765 298.913 0.000557765H319.018C323.999 0.000557765 328.036 4.04457 328.036 9.03312V217.6C328.036 222.588 323.999 226.632 319.018 226.632H298.913C293.933 226.632 289.896 222.588 289.896 217.6V9.03313Z" fill="#FEFDFA"/>
<path d="M961.861 107.714C961.861 103.147 965.557 99.4457 970.116 99.4457H1172.69C1177.25 99.4457 1180.95 103.147 1180.95 107.714V115.121C1180.95 175.72 1131.9 224.845 1071.4 224.845C1010.91 224.845 961.861 175.72 961.861 115.121V107.714Z" fill="#DA5534"/>
<path d="M1134 99.4455C1134 64.8173 1105.97 36.7457 1071.4 36.7457C1036.83 36.7457 1008.81 64.8173 1008.81 99.4455C1008.81 134.074 1036.83 162.145 1071.4 162.145V188.27C1022.43 188.27 982.727 148.502 982.727 99.4455C982.727 50.389 1022.43 10.6208 1071.4 10.6208C1120.38 10.6208 1160.08 50.389 1160.08 99.4455C1160.08 148.502 1120.38 188.27 1071.4 188.27V162.145C1105.97 162.145 1134 134.074 1134 99.4455Z" fill="#DA5534"/>
<path d="M4.21536 9.03298C4.21536 4.04443 8.25267 0.000419939 13.2329 0.000419939H180.998C185.978 0.000419939 190.016 4.04444 190.016 9.03298V22.7519C190.016 24.8419 189.292 26.8672 187.968 28.4827L54.559 191.286C53.4892 192.592 54.418 194.554 56.106 194.554H182.619C187.6 194.554 191.637 198.598 191.637 203.587V218.326C191.637 223.315 187.6 227.359 182.619 227.359H9.01759C4.03732 227.359 0 223.315 0 218.326V204.613C0 202.52 0.726019 200.491 2.05393 198.874L135.773 36.0744C136.845 34.7692 135.917 32.805 134.228 32.805H13.2329C8.25267 32.805 4.21536 28.761 4.21536 23.7724V9.03298Z" fill="#FEFDFA"/>
</svg>
