<svg width="45" height="43" viewBox="0 0 45 43" fill="none" xmlns="http://www.w3.org/2000/svg">
<path d="M0 19.4805C0 18.5644 0.742706 17.8217 1.65888 17.8217H42.3707C43.2868 17.8217 44.0295 18.5644 44.0295 19.4805V20.9666C44.0295 33.1251 34.1732 42.9814 22.0148 42.9814C9.85635 42.9814 0 33.1251 0 20.9666V19.4805Z" fill="#DC6E3F"/>
<path d="M34.5947 17.8215C34.5947 10.8738 28.9625 5.24162 22.0148 5.24162C15.0672 5.24162 9.43497 10.8738 9.43497 17.8215C9.43497 24.7692 15.0672 30.4014 22.0148 30.4014V35.643C12.1723 35.643 4.19336 27.664 4.19336 17.8215C4.19336 7.97896 12.1723 0 22.0148 0C31.8574 0 39.8363 7.97896 39.8363 17.8215C39.8363 27.664 31.8574 35.643 22.0148 35.643V30.4014C28.9625 30.4014 34.5947 24.7692 34.5947 17.8215Z" fill="#DC6E3F"/>
</svg>
